<svg xmlns="http://www.w3.org/2000/svg" viewBox="0 0 1200 630" role="img" aria-label="ID GALAXY social preview">
  <defs>
    <linearGradient id="bg" x1="0" y1="0" x2="1" y2="1">
      <stop offset="0%" stop-color="#07111e"/>
      <stop offset="100%" stop-color="#0b1a2b"/>
    </linearGradient>
    <linearGradient id="accent" x1="0" y1="0" x2="1" y2="1">
      <stop offset="0%" stop-color="#6ee7b7"/>
      <stop offset="100%" stop-color="#60a5fa"/>
    </linearGradient>
  </defs>
  <rect width="1200" height="630" fill="url(#bg)"/>
  <circle cx="980" cy="120" r="220" fill="#60a5fa" opacity="0.08"/>
  <circle cx="210" cy="520" r="260" fill="#6ee7b7" opacity="0.08"/>
  <rect x="84" y="86" width="1032" height="458" rx="36" fill="#0e2033" stroke="rgba(255,255,255,0.08)"/>
  <rect x="122" y="124" width="392" height="382" rx="28" fill="#09131f" stroke="rgba(255,255,255,0.06)"/>
  <rect x="160" y="162" width="316" height="306" rx="18" fill="#02101c"/>
  <circle cx="318" cy="315" r="84" fill="none" stroke="url(#accent)" stroke-width="10"/>
  <path d="M244 334c38-5 60-28 74-69 14 41 36 64 74 69-38 5-60 28-74 69-14-41-36-64-74-69Z" fill="url(#accent)"/>
  <text x="598" y="208" fill="#eaf6ff" font-size="72" font-family="Inter, Arial, sans-serif" font-weight="800">ID GALAXY</text>
  <text x="598" y="266" fill="#9fbfd6" font-size="28" font-family="Inter, Arial, sans-serif">Interaktywny identyfikator personalny</text>
  <text x="598" y="334" fill="#bfdcea" font-size="24" font-family="Inter, Arial, sans-serif">Arduino Nano • OLED • animacja gwiazd</text>
  <text x="598" y="394" fill="#9fbfd6" font-size="22" font-family="Inter, Arial, sans-serif">Futurystyczna wizytówka na targi i konferencje</text>
  <circle cx="1002" cy="170" r="5" fill="#eaf6ff"/>
  <circle cx="1050" cy="220" r="3" fill="#6ee7b7"/>
  <circle cx="980" cy="430" r="4" fill="#60a5fa"/>
</svg>